<svg width="495" height="195" viewBox="0 0 495 195" fill="none" xmlns="http://www.w3.org/2000/svg" role="img" aria-labelledby="title desc">
  <title id="title">sangikousenuser top languages</title>
  <desc id="desc">Top languages generated from public and private repositories accessible to the profile token.</desc>
  <rect width="495" height="195" rx="6" fill="#1A1B27"/>
  <text x="24" y="38" fill="#70A5FD" font-family="Arial, Helvetica, sans-serif" font-size="20" font-weight="700">Top Languages</text>
  <clipPath id="bar">
    <rect x="24" y="58" width="447" height="10" rx="5"/>
  </clipPath>
  <g clip-path="url(#bar)">
  <rect x="24" y="58" width="211" height="10" fill="#70A5FD"/>
  <rect x="235" y="58" width="75" height="10" fill="#BF91F3"/>
  <rect x="310" y="58" width="45" height="10" fill="#38BDAE"/>
  <rect x="355" y="58" width="38" height="10" fill="#F1E05A"/>
  <rect x="393" y="58" width="32" height="10" fill="#FF7B72"/>
  <rect x="425" y="58" width="23" height="10" fill="#FFA657"/>
  <rect x="448" y="58" width="19" height="10" fill="#8B949E"/>
  <rect x="467" y="58" width="5" height="10" fill="#3FB950"/>
  </g>
  <circle cx="29" cy="94" r="5" fill="#70A5FD"/>
  <text x="42" y="98" fill="#C9D1D9" font-family="Arial, Helvetica, sans-serif" font-size="13">TypeScript</text>
  <text x="224" y="98" fill="#8B949E" font-family="Arial, Helvetica, sans-serif" font-size="13" text-anchor="end">47.2%</text>
  <circle cx="265" cy="94" r="5" fill="#BF91F3"/>
  <text x="278" y="98" fill="#C9D1D9" font-family="Arial, Helvetica, sans-serif" font-size="13">Vue</text>
  <text x="460" y="98" fill="#8B949E" font-family="Arial, Helvetica, sans-serif" font-size="13" text-anchor="end">16.7%</text>
  <circle cx="29" cy="120" r="5" fill="#38BDAE"/>
  <text x="42" y="124" fill="#C9D1D9" font-family="Arial, Helvetica, sans-serif" font-size="13">HTML</text>
  <text x="224" y="124" fill="#8B949E" font-family="Arial, Helvetica, sans-serif" font-size="13" text-anchor="end">10.0%</text>
  <circle cx="265" cy="120" r="5" fill="#F1E05A"/>
  <text x="278" y="124" fill="#C9D1D9" font-family="Arial, Helvetica, sans-serif" font-size="13">JavaScript</text>
  <text x="460" y="124" fill="#8B949E" font-family="Arial, Helvetica, sans-serif" font-size="13" text-anchor="end">8.5%</text>
  <circle cx="29" cy="146" r="5" fill="#FF7B72"/>
  <text x="42" y="150" fill="#C9D1D9" font-family="Arial, Helvetica, sans-serif" font-size="13">CSS</text>
  <text x="224" y="150" fill="#8B949E" font-family="Arial, Helvetica, sans-serif" font-size="13" text-anchor="end">7.2%</text>
  <circle cx="265" cy="146" r="5" fill="#FFA657"/>
  <text x="278" y="150" fill="#C9D1D9" font-family="Arial, Helvetica, sans-serif" font-size="13">TeX</text>
  <text x="460" y="150" fill="#8B949E" font-family="Arial, Helvetica, sans-serif" font-size="13" text-anchor="end">5.1%</text>
  <circle cx="29" cy="172" r="5" fill="#8B949E"/>
  <text x="42" y="176" fill="#C9D1D9" font-family="Arial, Helvetica, sans-serif" font-size="13">Python</text>
  <text x="224" y="176" fill="#8B949E" font-family="Arial, Helvetica, sans-serif" font-size="13" text-anchor="end">4.2%</text>
  <circle cx="265" cy="172" r="5" fill="#3FB950"/>
  <text x="278" y="176" fill="#C9D1D9" font-family="Arial, Helvetica, sans-serif" font-size="13">Swift</text>
  <text x="460" y="176" fill="#8B949E" font-family="Arial, Helvetica, sans-serif" font-size="13" text-anchor="end">1.1%</text>
</svg>
